<?xml version="1.0" encoding="utf-8"?>
<!-- Generator: Adobe Illustrator 16.0.0, SVG Export Plug-In . SVG Version: 6.00 Build 0)  -->
<!DOCTYPE svg PUBLIC "-//W3C//DTD SVG 1.1//EN" "http://www.w3.org/Graphics/SVG/1.1/DTD/svg11.dtd">
<svg version="1.1" id="Layer_2" xmlns="http://www.w3.org/2000/svg" xmlns:xlink="http://www.w3.org/1999/xlink" x="0px" y="0px"
	 width="833.898px" height="259.322px" viewBox="0 0 833.898 259.322" enable-background="new 0 0 833.898 259.322"
	 xml:space="preserve">
<path fill-rule="evenodd" clip-rule="evenodd" fill="#FFFFFF" d="M751.96,184.528c-0.574,0.018-1.149,0.053-1.724,0.053
	c-11.324,0.002-22.648,0.002-33.973,0.002c-1.942,0-1.945-0.004-1.945-2.018c0-39.828,0-79.654,0-119.48c0-0.518,0-1.035,0-1.677
	c0.552-0.068,0.96-0.162,1.368-0.162c12.091,0,24.183,0.011,36.273,0.019C751.96,102.352,751.96,143.44,751.96,184.528z"/>
<path fill-rule="evenodd" clip-rule="evenodd" fill="#FFFFFF" d="M143.5,114.188c1.43,0.449,2.703,0.814,3.953,1.248
	c5.982,2.078,11.331,5.164,15.594,9.939c4.106,4.6,6.557,9.967,7.477,16.061c1.011,6.691,0.372,13.189-2.181,19.473
	c-2.751,6.771-7.256,12.145-13.2,16.332c-6.138,4.322-13.021,6.865-20.326,8.369c-8.677,1.787-17.445,1.832-26.224,1.201
	c-7.237-0.521-14.358-1.797-21.334-3.822c-4.844-1.408-9.532-3.215-14.013-5.539c-0.338-0.176-0.662-0.385-0.975-0.604
	c-0.107-0.074-0.159-0.229-0.292-0.436c4.38-9.521,8.776-19.078,13.229-28.756c0.583,0.293,1.005,0.488,1.414,0.711
	c5.593,3.053,11.522,5.174,17.761,6.459c4.579,0.943,9.198,1.422,13.868,1.221c3.38-0.145,6.68-0.707,9.612-2.57
	c3.043-1.932,4.255-5.111,3.224-8.457c-0.771-2.504-2.711-3.727-5.03-4.51c-2.439-0.824-4.972-1.021-7.518-1.037
	c-4.751-0.029-9.503-0.008-14.255-0.008c-0.384,0-0.768-0.004-1.152-0.01c-0.521-0.006-0.798-0.271-0.819-0.793
	c-0.012-0.287-0.014-0.576-0.014-0.863c-0.001-7.057,0.011-14.111-0.015-21.168c-0.003-0.924,0.243-1.607,0.914-2.285
	c6.21-6.275,12.381-12.588,18.564-18.891c3.73-3.801,7.463-7.598,11.19-11.402c4.834-4.938,9.675-9.867,14.483-14.828
	c0.688-0.711,1.396-1.018,2.393-1.016c30.91,0.021,61.82-0.02,92.73,0.053c5.466,0.012,10.894,0.734,16.26,1.896
	c6.555,1.42,12.819,3.6,18.688,6.855c12.139,6.734,20.603,16.584,24.988,29.805c1.867,5.629,2.792,11.434,2.91,17.383
	c0.076,3.846-0.02,7.674-0.544,11.475c-0.611,4.426-1.684,8.748-3.326,12.92c-5.049,12.824-13.937,22.074-26.181,28.227
	c-6.044,3.039-12.412,5.063-19.064,6.209c-2.497,0.43-5.011,0.764-7.679,1.164c-0.075-0.584-0.171-0.99-0.172-1.395
	c-0.008-9.744-0.009-19.486-0.003-29.23c0.001-1.285,0.009-1.316,1.215-1.76c2.403-0.883,4.633-2.068,6.658-3.639
	c3.587-2.783,6.121-6.332,7.583-10.613c2.535-7.422,2.581-14.91,0.029-22.303c-2.664-7.717-8.189-12.568-15.949-14.914
	c-3.139-0.949-6.365-1.367-9.648-1.367c-26.11,0.006-52.221,0.01-78.331-0.02c-1.196-0.002-2.051,0.311-2.893,1.184
	c-4.226,4.391-8.519,8.715-12.784,13.068C144.06,113.465,143.848,113.766,143.5,114.188z"/>
<path fill-rule="evenodd" clip-rule="evenodd" fill="#FFFFFF" d="M434.769,93.663c12.041,0,23.822,0,35.759,0
	c0.039,0.721,0.106,1.371,0.106,2.021c0.005,23.566,0.001,47.131,0.006,70.695c0.002,6.07-0.606,12.066-2.16,17.941
	c-1.998,7.559-5.479,14.322-11.049,19.891c-4.905,4.904-10.773,8.273-17.317,10.482c-7.242,2.445-14.707,3.479-22.339,3.607
	c-4.607,0.078-9.2-0.012-13.779-0.463c-10.97-1.08-21.557-3.537-31.286-8.963c-0.878-0.488-1.723-1.039-2.575-1.572
	c-0.113-0.072-0.176-0.221-0.366-0.471c4.156-8.428,8.339-16.91,12.565-25.479c0.509,0.287,0.848,0.449,1.154,0.658
	c4.411,2.998,9.269,4.963,14.403,6.332c4.897,1.307,9.861,2.006,14.932,1.873c3.908-0.102,7.734-0.615,11.324-2.314
	c4.231-2.002,6.874-5.342,7.946-9.824c0.53-2.219,0.596-4.549,0.859-6.83c0.021-0.174-0.059-0.361-0.119-0.693
	c-0.342,0.234-0.63,0.373-0.843,0.588c-4.515,4.529-10.08,6.883-16.302,7.844c-5.157,0.797-10.335,0.816-15.476-0.066
	c-8.877-1.527-16.661-5.295-23.171-11.594c-5.629-5.445-9.304-12.025-11.308-19.551c-1.218-4.572-1.633-9.252-1.453-13.979
	c0.358-9.414,3.137-17.99,8.956-25.482c4.608-5.934,10.472-10.207,17.409-13.043c5.898-2.412,12.055-3.484,18.402-3.35
	c5.401,0.115,10.697,0.873,15.649,3.246c3.473,1.666,6.46,3.934,8.891,6.928c0.241,0.297,0.495,0.584,0.759,0.859
	c0.045,0.047,0.172,0.014,0.421,0.025C434.769,99.932,434.769,96.887,434.769,93.663z M433.238,135.866
	c-0.029-0.432-0.06-0.861-0.088-1.291c-0.35-5.289-2.893-9.156-7.622-11.512c-3.801-1.895-7.842-2.164-11.924-1.201
	c-3.933,0.93-7.161,3.008-9.231,6.576c-1.773,3.061-2.264,6.365-1.652,9.857c0.643,3.674,2.39,6.666,5.437,8.814
	c4.256,3,8.995,3.664,13.991,2.512c3.47-0.799,6.388-2.551,8.486-5.518C432.382,141.633,433.198,138.875,433.238,135.866z"/>
<path fill-rule="evenodd" clip-rule="evenodd" fill="#FFFFFF" d="M702.188,184.483c-11.663,0-23.198,0-34.937,0
	c-0.039-3.617,0-7.143-0.022-10.934c-0.338,0.342-0.558,0.488-0.671,0.691c-3.048,5.459-7.768,8.762-13.657,10.504
	c-4.176,1.236-8.461,1.521-12.805,1.412c-3.567-0.092-7.08-0.492-10.525-1.393c-6.94-1.814-12.855-5.225-17.04-11.223
	c-3.112-4.459-4.538-9.461-4.669-14.867c-0.085-3.533,0.334-6.984,1.552-10.32c2.12-5.809,6.213-9.826,11.593-12.613
	c4.25-2.201,8.816-3.443,13.526-4.229c6.224-1.035,12.498-1.166,18.783-1.17c3.071,0,6.143,0.004,9.214-0.004
	c0.511,0,1.021-0.049,1.717-0.086c-0.148-0.711-0.208-1.271-0.385-1.793c-1.232-3.629-3.789-5.912-7.363-7.119
	c-3.787-1.279-7.702-1.531-11.646-1.229c-4.855,0.371-9.585,1.387-14.043,3.396c-1.871,0.844-3.639,1.916-5.449,2.895
	c-0.369,0.199-0.717,0.439-1.234,0.758c-4.021-8.322-7.99-16.537-12.05-24.936c1.852-0.992,3.532-1.996,5.297-2.82
	c7.531-3.52,15.502-5.541,23.704-6.672c4.657-0.643,9.354-0.959,14.06-0.818c7.259,0.219,14.44,0.996,21.36,3.381
	c5.464,1.881,10.428,4.619,14.589,8.678c3.845,3.748,6.571,8.227,8.35,13.277c1.749,4.969,2.698,10.098,2.722,15.363
	c0.074,16.699,0.096,33.396,0.132,50.094C702.291,183.27,702.228,183.833,702.188,184.483z M664.511,148.846
	c-0.32-0.08-0.455-0.145-0.589-0.145c-3.112-0.006-6.229-0.096-9.337,0.021c-2.235,0.082-4.488,0.273-6.582,1.242
	c-2.392,1.107-3.721,2.957-3.893,5.574c-0.182,2.752,0.816,4.967,3.228,6.432c1.416,0.863,2.968,1.238,4.628,1.361
	c5.069,0.377,9.322-1.922,11.568-6.156c0.399-0.752,0.876-1.566,0.933-2.379C664.603,152.846,664.511,150.881,664.511,148.846z"/>
<path fill-rule="evenodd" clip-rule="evenodd" fill="#FFFFFF" d="M541.837,126.184c-4.138,0-8.099,0-11.992,0
	c-0.415-1.186-0.517-25.73-0.142-27.609c1.263-0.184,2.595-0.059,3.914-0.082c1.344-0.021,2.688-0.004,4.032-0.004
	c1.33,0,2.659,0,4.188,0c0-0.754,0-1.313,0-1.871c0-7.008,0-14.016,0-21.023c0-0.287-0.003-0.576,0.001-0.863
	c0.019-1.551,0.051-1.592,1.647-1.592c9.168-0.004,18.336-0.002,27.504-0.002c2.208,0,4.415-0.002,6.623,0
	c1.942,0.002,1.945,0.004,1.945,2.025c0.002,7.152,0.001,14.303,0.001,21.455c0,0.563,0,1.127,0,1.828c6.218,0,12.249,0,18.427,0
	c0.073,0.523,0.18,0.928,0.18,1.332c0.01,8.352,0.009,16.703,0.002,25.057c0,0.371-0.078,0.742-0.142,1.311
	c-6.123,0.041-12.189-0.006-18.332,0.025c-0.057,0.525-0.13,0.893-0.13,1.26c-0.007,7.008-0.03,14.016,0.019,21.023
	c0.009,1.277,0.157,2.604,0.526,3.82c1.12,3.691,4.059,5.564,7.883,5.299c2.687-0.186,5.18-0.906,7.632-2.451
	c0.249,0.539,0.521,1.018,0.697,1.529c2.364,6.838,4.717,13.68,7.07,20.521c0.358,1.043,0.701,2.092,1.056,3.135
	c0.349,1.029,0.385,1.139-0.59,1.541c-2.122,0.873-4.247,1.779-6.445,2.418c-4.442,1.287-9.014,1.754-13.639,1.879
	c-4.766,0.129-9.494-0.104-14.176-1c-6.562-1.258-12.598-3.672-17.597-8.266c-3.872-3.557-6.457-7.932-8.059-12.908
	c-1.108-3.441-1.832-6.969-1.918-10.582c-0.13-5.467-0.142-10.936-0.183-16.404c-0.022-3.072-0.004-6.145-0.004-9.217
	C541.837,127.301,541.837,126.834,541.837,126.184z"/>
<path fill-rule="evenodd" clip-rule="evenodd" fill="#FFFFFF" d="M316.753,93.577c0.611,0,1.078,0,1.545,0
	c11.465,0,22.931,0,34.396,0c0.24,0,0.48,0.008,0.72,0.002c0.582-0.012,0.901,0.26,0.918,0.852c0.012,0.43,0.017,0.863,0.017,1.295
	c0.001,28.928,0.001,57.855,0,86.783c0,2.07-0.002,2.072-2.039,2.074c-11.226,0-22.452,0-33.677,0c-0.24,0-0.48,0.008-0.719-0.002
	c-1.134-0.041-1.235-0.137-1.284-1.23c-0.013-0.289-0.003-0.576-0.003-0.865c0-28.928,0-57.855,0.005-86.783
	C316.632,95.049,316.704,94.399,316.753,93.577z"/>
<path fill-rule="evenodd" clip-rule="evenodd" fill="#FFFFFF" d="M482.574,93.657c12.654,0,25.015,0,37.527,0
	c0.054,0.617,0.143,1.168,0.144,1.719c0.011,5.375,0.007,10.75,0.007,16.125c0,23.613-0.001,47.227,0.002,70.84
	c0,2.432,0.073,2.24-2.296,2.24c-11.086,0.002-22.173,0.002-33.259,0.002c-0.336,0-0.673,0.012-1.008-0.006
	c-0.948-0.051-1.054-0.154-1.111-1.094c-0.021-0.336-0.006-0.672-0.006-1.008c0-28.941,0-57.881,0-86.82
	C482.574,95.042,482.574,94.426,482.574,93.657z"/>
<path fill-rule="evenodd" clip-rule="evenodd" fill="#EF4354" d="M240.408,139.28c0.284,1.387,0.238,60.58-0.074,61.754
	c-20.391,0-40.807,0-61.168,0c-0.093-0.072-0.136-0.096-0.167-0.131c-0.03-0.035-0.057-0.078-0.068-0.123
	c-0.035-0.139-0.089-0.277-0.089-0.418c-0.006-20.104-0.009-40.207-0.008-60.309c0-0.236,0.043-0.473,0.061-0.65
	c0.077-0.084,0.106-0.121,0.141-0.154c0.035-0.033,0.074-0.086,0.111-0.086c20.004-0.031,40.009-0.057,60.014-0.08
	c0.334-0.002,0.67,0.023,1.003,0.057C240.25,139.147,240.327,139.231,240.408,139.28z M215.208,190.551c0-5.123,0-10.086,0-15.242
	c5.229,0,10.282,0,15.29,0c0.349-1.674,0.288-10.436-0.07-11.539c-1.206,0-2.447,0-3.689,0c-1.295,0-2.59,0-3.885,0
	c-1.247,0-2.495,0.023-3.741-0.008c-1.268-0.031-2.555,0.154-3.917-0.168c0-0.639,0-1.158,0-1.68c0-3.98,0.006-7.961-0.006-11.941
	c-0.001-0.549-0.089-1.096-0.134-1.605c-2.328-0.281-10.048-0.182-11.173,0.162c0,1.623,0,3.293,0,4.963
	c0,1.727,0.008,3.453-0.002,5.18c-0.01,1.656,0.049,3.316-0.047,5.129c-5.259,0-10.317,0-15.434,0c0,3.881,0,7.596,0,11.492
	c1.792,0,3.505,0,5.218,0c1.679,0,3.357-0.016,5.036,0.004c1.703,0.018,3.414-0.084,5.264,0.082c0,5.139,0,10.104,0,15.172
	C207.694,190.551,211.31,190.551,215.208,190.551z"/>
<path fill-rule="evenodd" clip-rule="evenodd" fill="#EF4354" d="M138.159,68.594c-0.198,0.252-0.374,0.527-0.598,0.756
	c-4.205,4.277-8.423,8.541-12.622,12.822c-5.105,5.207-10.212,10.414-15.276,15.66c-0.795,0.824-1.598,1.172-2.752,1.168
	c-10.51-0.041-21.021-0.023-31.531-0.023c-0.522,0-1.044,0-1.722,0c-0.045-0.574-0.112-1.033-0.112-1.49
	c-0.006-9.215-0.007-18.43-0.002-27.645c0.001-1.564,0.054-1.615,1.623-1.615c11.806-0.004,23.612-0.002,35.418-0.002
	c8.639,0,17.277,0,25.916,0c0.51,0,1.02,0,1.53,0C138.074,68.348,138.117,68.471,138.159,68.594z"/>
<path fill-rule="evenodd" clip-rule="evenodd" fill="#FFFFFF" d="M482.86,52.799c0.473-0.041,0.984-0.123,1.495-0.123
	c11.423-0.007,22.846-0.006,34.269-0.005c0.287,0,0.575,0.008,0.863,0.015c0.599,0.015,0.858,0.339,0.843,0.92
	c-0.006,0.24,0.002,0.48,0.002,0.72c0.001,10.08,0.002,20.158-0.003,30.236c-0.001,0.514-0.059,1.025-0.095,1.623
	c-12.533,0-24.934,0-37.315,0C482.628,85.042,482.568,54.458,482.86,52.799z"/>
<path fill-rule="evenodd" clip-rule="evenodd" fill="#FFFFFF" d="M335.446,86.282c-5.612,0-11.224,0.002-16.836,0
	c-0.384,0-0.768-0.002-1.151-0.014c-0.52-0.016-0.788-0.301-0.813-0.811c-0.017-0.336-0.019-0.672-0.019-1.008
	c-0.001-9.977,0-19.953,0-29.93c0-0.24-0.01-0.48,0.004-0.72c0.057-0.914,0.182-1.043,1.12-1.116
	c0.334-0.026,0.671-0.013,1.007-0.013c11.128,0,22.257,0,33.385,0c0.144,0,0.288-0.001,0.432,0c1.72,0.021,1.773,0.066,1.773,1.783
	c0.002,10.025,0.001,20.05,0,30.076c0,0.287-0.004,0.574-0.015,0.863c-0.02,0.576-0.316,0.877-0.901,0.881
	c-0.383,0.002-0.767,0.008-1.151,0.008C346.67,86.282,341.059,86.282,335.446,86.282z"/>
<path fill-rule="evenodd" clip-rule="evenodd" fill="#FFFFFF" d="M215.208,190.551c-3.899,0-7.515,0-11.292,0
	c0-5.068,0-10.033,0-15.172c-1.85-0.166-3.561-0.064-5.264-0.082c-1.679-0.02-3.357-0.004-5.036-0.004c-1.713,0-3.426,0-5.218,0
	c0-3.896,0-7.611,0-11.492c5.117,0,10.175,0,15.434,0c0.096-1.813,0.037-3.473,0.047-5.129c0.01-1.727,0.002-3.453,0.002-5.18
	c0-1.67,0-3.34,0-4.963c1.125-0.344,8.845-0.443,11.173-0.162c0.045,0.51,0.133,1.057,0.134,1.605
	c0.012,3.98,0.006,7.961,0.006,11.941c0,0.521,0,1.041,0,1.68c1.362,0.322,2.649,0.137,3.917,0.168
	c1.246,0.031,2.494,0.008,3.741,0.008c1.295,0,2.59,0,3.885,0c1.242,0,2.483,0,3.689,0c0.358,1.104,0.419,9.865,0.07,11.539
	c-5.007,0-10.06,0-15.29,0C215.208,180.465,215.208,185.428,215.208,190.551z"/>
</svg>
