<?xml version="1.0" encoding="utf-8"?>
<!-- Generator: Adobe Illustrator 24.0.1, SVG Export Plug-In . SVG Version: 6.00 Build 0)  -->
<svg version="1.1" id="Layer_2_1_" xmlns="http://www.w3.org/2000/svg" xmlns:xlink="http://www.w3.org/1999/xlink" x="0px" y="0px"
	 viewBox="0 0 692 198" style="enable-background:new 0 0 692 198;" xml:space="preserve">
<style type="text/css">
	.st0{fill-rule:evenodd;clip-rule:evenodd;fill:#FFFFFF;}
	.st1{fill-rule:evenodd;clip-rule:evenodd;fill:#EF4354;}
</style>
<g>
	<path class="st0" d="M681.9,153.5c-0.6,0-1.1,0.1-1.7,0.1c-11.3,0-22.6,0-34,0c-1.9,0-1.9,0-1.9-2c0-39.8,0-79.7,0-119.5
		c0-0.5,0-1,0-1.7c0.6-0.1,1-0.2,1.4-0.2c12.1,0,24.2,0,36.3,0C681.9,71.4,681.9,112.4,681.9,153.5z"/>
	<path class="st0" d="M364.7,62.7c12,0,23.8,0,35.8,0c0,0.7,0.1,1.4,0.1,2c0,23.6,0,47.1,0,70.7c0,6.1-0.6,12.1-2.2,17.9
		c-2,7.6-5.5,14.3-11,19.9c-4.9,4.9-10.8,8.3-17.3,10.5c-7.2,2.4-14.7,3.5-22.3,3.6c-4.6,0.1-9.2,0-13.8-0.5
		c-11-1.1-21.6-3.5-31.3-9c-0.9-0.5-1.7-1-2.6-1.6c-0.1-0.1-0.2-0.2-0.4-0.5c4.2-8.4,8.3-16.9,12.6-25.5c0.5,0.3,0.8,0.4,1.2,0.7
		c4.4,3,9.3,5,14.4,6.3c4.9,1.3,9.9,2,14.9,1.9c3.9-0.1,7.7-0.6,11.3-2.3c4.2-2,6.9-5.3,7.9-9.8c0.5-2.2,0.6-4.5,0.9-6.8
		c0-0.2-0.1-0.4-0.1-0.7c-0.3,0.2-0.6,0.4-0.8,0.6c-4.5,4.5-10.1,6.9-16.3,7.8c-5.2,0.8-10.3,0.8-15.5-0.1
		c-8.9-1.5-16.7-5.3-23.2-11.6c-5.6-5.4-9.3-12-11.3-19.6c-1.2-4.6-1.6-9.3-1.5-14c0.4-9.4,3.1-18,9-25.5c4.6-5.9,10.5-10.2,17.4-13
		c5.9-2.4,12.1-3.5,18.4-3.3c5.4,0.1,10.7,0.9,15.6,3.2c3.5,1.7,6.5,3.9,8.9,6.9c0.2,0.3,0.5,0.6,0.8,0.9c0,0,0.2,0,0.4,0
		C364.7,68.9,364.7,65.9,364.7,62.7z M363.1,104.9c0-0.4-0.1-0.9-0.1-1.3c-0.4-5.3-2.9-9.2-7.6-11.5c-3.8-1.9-7.8-2.2-11.9-1.2
		c-3.9,0.9-7.2,3-9.2,6.6c-1.8,3.1-2.3,6.4-1.7,9.9c0.6,3.7,2.4,6.7,5.4,8.8c4.3,3,9,3.7,14,2.5c3.5-0.8,6.4-2.6,8.5-5.5
		C362.3,110.6,363.1,107.9,363.1,104.9z"/>
	<path class="st0" d="M632.1,153.5c-11.7,0-23.2,0-34.9,0c0-3.6,0-7.1,0-10.9c-0.3,0.3-0.6,0.5-0.7,0.7c-3,5.5-7.8,8.8-13.7,10.5
		c-4.2,1.2-8.5,1.5-12.8,1.4c-3.6-0.1-7.1-0.5-10.5-1.4c-6.9-1.8-12.9-5.2-17-11.2c-3.1-4.5-4.5-9.5-4.7-14.9
		c-0.1-3.5,0.3-7,1.6-10.3c2.1-5.8,6.2-9.8,11.6-12.6c4.3-2.2,8.8-3.4,13.5-4.2c6.2-1,12.5-1.2,18.8-1.2c3.1,0,6.1,0,9.2,0
		c0.5,0,1,0,1.7-0.1c-0.1-0.7-0.2-1.3-0.4-1.8c-1.2-3.6-3.8-5.9-7.4-7.1c-3.8-1.3-7.7-1.5-11.6-1.2c-4.9,0.4-9.6,1.4-14,3.4
		c-1.9,0.8-3.6,1.9-5.4,2.9c-0.4,0.2-0.7,0.4-1.2,0.8c-4-8.3-8-16.5-12-24.9c1.9-1,3.5-2,5.3-2.8c7.5-3.5,15.5-5.5,23.7-6.7
		c4.7-0.6,9.4-1,14.1-0.8c7.3,0.2,14.4,1,21.4,3.4c5.5,1.9,10.4,4.6,14.6,8.7c3.8,3.7,6.6,8.2,8.3,13.3c1.7,5,2.7,10.1,2.7,15.4
		c0.1,16.7,0.1,33.4,0.1,50.1C632.2,152.3,632.1,152.8,632.1,153.5z M594.4,117.8c-0.3-0.1-0.5-0.1-0.6-0.1c-3.1,0-6.2-0.1-9.3,0
		c-2.2,0.1-4.5,0.3-6.6,1.2c-2.4,1.1-3.7,3-3.9,5.6c-0.2,2.8,0.8,5,3.2,6.4c1.4,0.9,3,1.2,4.6,1.4c5.1,0.4,9.3-1.9,11.6-6.2
		c0.4-0.8,0.9-1.6,0.9-2.4C594.5,121.8,594.4,119.9,594.4,117.8z"/>
	<path class="st0" d="M471.7,95.2c-4.1,0-8.1,0-12,0c-0.4-1.2-0.5-25.7-0.1-27.6c1.3-0.2,2.6-0.1,3.9-0.1s2.7,0,4,0s2.7,0,4.2,0
		c0-0.8,0-1.3,0-1.9c0-7,0-14,0-21c0-0.3,0-0.6,0-0.9c0-1.6,0.1-1.6,1.6-1.6c9.2,0,18.3,0,27.5,0c2.2,0,4.4,0,6.6,0
		c1.9,0,1.9,0,1.9,2c0,7.2,0,14.3,0,21.5c0,0.6,0,1.1,0,1.8c6.2,0,12.2,0,18.4,0c0.1,0.5,0.2,0.9,0.2,1.3c0,8.4,0,16.7,0,25.1
		c0,0.4-0.1,0.7-0.1,1.3c-6.1,0-12.2,0-18.3,0c-0.1,0.5-0.1,0.9-0.1,1.3c0,7,0,14,0,21c0,1.3,0.2,2.6,0.5,3.8
		c1.1,3.7,4.1,5.6,7.9,5.3c2.7-0.2,5.2-0.9,7.6-2.5c0.2,0.5,0.5,1,0.7,1.5c2.4,6.8,4.7,13.7,7.1,20.5c0.4,1,0.7,2.1,1.1,3.1
		c0.3,1,0.4,1.1-0.6,1.5c-2.1,0.9-4.2,1.8-6.4,2.4c-4.4,1.3-9,1.8-13.6,1.9c-4.8,0.1-9.5-0.1-14.2-1c-6.6-1.3-12.6-3.7-17.6-8.3
		c-3.9-3.6-6.5-7.9-8.1-12.9c-1.1-3.4-1.8-7-1.9-10.6c-0.1-5.5-0.1-10.9-0.2-16.4c0-3.1,0-6.1,0-9.2
		C471.7,96.3,471.7,95.8,471.7,95.2z"/>
	<path class="st0" d="M246.7,62.6c0.6,0,1.1,0,1.5,0c11.5,0,22.9,0,34.4,0c0.2,0,0.5,0,0.7,0c0.6,0,0.9,0.3,0.9,0.9
		c0,0.4,0,0.9,0,1.3c0,28.9,0,57.9,0,86.8c0,2.1,0,2.1-2,2.1c-11.2,0-22.5,0-33.7,0c-0.2,0-0.5,0-0.7,0c-1.1,0-1.2-0.1-1.3-1.2
		c0-0.3,0-0.6,0-0.9c0-28.9,0-57.9,0-86.8C246.5,64,246.6,63.4,246.7,62.6z"/>
	<path class="st0" d="M412.5,62.7c12.7,0,25,0,37.5,0c0.1,0.6,0.1,1.2,0.1,1.7c0,5.4,0,10.8,0,16.1c0,23.6,0,47.2,0,70.8
		c0,2.4,0.1,2.2-2.3,2.2c-11.1,0-22.2,0-33.3,0c-0.3,0-0.7,0-1,0c-0.9-0.1-1.1-0.2-1.1-1.1c0-0.3,0-0.7,0-1c0-28.9,0-57.9,0-86.8
		C412.5,64,412.5,63.4,412.5,62.7z"/>
	<path class="st0" d="M412.8,21.8c0.5,0,1-0.1,1.5-0.1c11.4,0,22.8,0,34.3,0c0.3,0,0.6,0,0.9,0c0.6,0,0.9,0.3,0.8,0.9
		c0,0.2,0,0.5,0,0.7c0,10.1,0,20.2,0,30.2c0,0.5-0.1,1-0.1,1.6c-12.5,0-24.9,0-37.3,0C412.5,54,412.5,23.5,412.8,21.8z"/>
	<path class="st0" d="M265.3,55.3c-5.6,0-11.2,0-16.8,0c-0.4,0-0.8,0-1.2,0c-0.5,0-0.8-0.3-0.8-0.8c0-0.3,0-0.7,0-1
		c0-10,0-20,0-29.9c0-0.2,0-0.5,0-0.7c0.1-0.9,0.2-1,1.1-1.1c0.3,0,0.7,0,1,0c11.1,0,22.3,0,33.4,0c0.1,0,0.3,0,0.4,0
		c1.7,0,1.8,0.1,1.8,1.8c0,10,0,20,0,30.1c0,0.3,0,0.6,0,0.9c0,0.6-0.3,0.9-0.9,0.9c-0.4,0-0.8,0-1.2,0
		C276.6,55.3,271,55.3,265.3,55.3z"/>
	<g>
		<path class="st0" d="M73.4,83.2c1.4,0.4,2.7,0.8,4,1.2c6,2.1,11.3,5.2,15.6,9.9c4.1,4.6,6.6,10,7.5,16.1c1,6.7,0.4,13.2-2.2,19.5
			c-2.8,6.8-7.3,12.1-13.2,16.3c-6.1,4.3-13,6.9-20.3,8.4c-8.7,1.8-17.4,1.8-26.2,1.2c-7.2-0.5-14.4-1.8-21.3-3.8
			c-4.8-1.4-9.5-3.2-14-5.5c-0.3-0.2-0.7-0.4-1-0.6c-0.1-0.1-0.2-0.2-0.3-0.4c4.4-9.5,8.8-19.1,13.2-28.8c0.6,0.3,1,0.5,1.4,0.7
			c5.6,3.1,11.5,5.2,17.8,6.5c4.6,0.9,9.2,1.4,13.9,1.2c3.4-0.1,6.7-0.7,9.6-2.6c3-1.9,4.3-5.1,3.2-8.5c-0.8-2.5-2.7-3.7-5-4.5
			c-2.4-0.8-5-1-7.5-1c-4.8,0-9.5,0-14.3,0c-0.4,0-0.8,0-1.2,0c-0.5,0-0.8-0.3-0.8-0.8c0-0.3,0-0.6,0-0.9c0-7.1,0-14.1,0-21.2
			c0-0.9,0.2-1.6,0.9-2.3c6.2-6.3,12.4-12.6,18.6-18.9c3.7-3.8,7.5-7.6,11.2-11.4c4.8-4.9,9.7-9.9,14.5-14.8c0.7-0.7,1.4-1,2.4-1
			c30.9,0,61.8,0,92.7,0.1c5.5,0,10.9,0.7,16.3,1.9c6.6,1.4,12.8,3.6,18.7,6.9c12.1,6.7,20.6,16.6,25,29.8
			c1.9,5.6,2.8,11.4,2.9,17.4c0.1,3.8,0,7.7-0.5,11.5c-0.6,4.4-1.7,8.7-3.3,12.9c-5,12.8-13.9,22.1-26.2,28.2
			c-6,3-12.4,5.1-19.1,6.2c-2.5,0.4-5,0.8-7.7,1.2c-0.1-0.6-0.2-1-0.2-1.4c0-9.7,0-19.5,0-29.2c0-1.3,0-1.3,1.2-1.8
			c2.4-0.9,4.6-2.1,6.7-3.6c3.6-2.8,6.1-6.3,7.6-10.6c2.5-7.4,2.6-14.9,0-22.3c-2.7-7.7-8.2-12.6-15.9-14.9
			c-3.1-0.9-6.4-1.4-9.6-1.4c-26.1,0-52.2,0-78.3,0c-1.2,0-2.1,0.3-2.9,1.2c-4.2,4.4-8.5,8.7-12.8,13.1C74,82.5,73.7,82.8,73.4,83.2
			z"/>
		<path class="st1" d="M170.3,108.3c0.3,1.4,0.2,60.6-0.1,61.8c-20.4,0-40.8,0-61.2,0c-0.1-0.1-0.1-0.1-0.2-0.1l-0.1-0.1
			c0-0.1-0.1-0.3-0.1-0.4c0-20.1,0-40.2,0-60.3c0-0.2,0-0.5,0.1-0.6s0.1-0.1,0.1-0.2s0.1-0.1,0.1-0.1c20,0,40-0.1,60-0.1
			c0.3,0,0.7,0,1,0.1C170.2,108.1,170.2,108.2,170.3,108.3z M145.1,159.6c0-5.1,0-10.1,0-15.2c5.2,0,10.3,0,15.3,0
			c0.3-1.7,0.3-10.4-0.1-11.5c-1.2,0-2.4,0-3.7,0s-2.6,0-3.9,0c-1.2,0-2.5,0-3.7,0c-1.3,0-2.6,0.2-3.9-0.2c0-0.6,0-1.2,0-1.7
			c0-4,0-8,0-11.9c0-0.5-0.1-1.1-0.1-1.6c-2.3-0.3-10-0.2-11.2,0.2c0,1.6,0,3.3,0,5s0,3.5,0,5.2s0,3.3,0,5.1c-5.3,0-10.3,0-15.4,0
			c0,3.9,0,7.6,0,11.5c1.8,0,3.5,0,5.2,0s3.4,0,5,0c1.7,0,3.4-0.1,5.3,0.1c0,5.1,0,10.1,0,15.2C137.6,159.6,141.2,159.6,145.1,159.6
			z"/>
		<path class="st1" d="M68.1,37.6c-0.2,0.3-0.4,0.5-0.6,0.8c-4.2,4.3-8.4,8.5-12.6,12.8c-5.1,5.2-10.2,10.4-15.3,15.7
			c-0.8,0.8-1.6,1.2-2.8,1.2c-10.5,0-21,0-31.5,0c-0.5,0-1,0-1.7,0c0-0.6-0.1-1-0.1-1.5c0-9.2,0-18.4,0-27.6c0-1.6,0.1-1.6,1.6-1.6
			c11.8,0,23.6,0,35.4,0c8.6,0,17.3,0,25.9,0c0.5,0,1,0,1.5,0C68,37.3,68,37.5,68.1,37.6z"/>
		<path class="st0" d="M145.1,159.6c-3.9,0-7.5,0-11.3,0c0-5.1,0-10,0-15.2c-1.9-0.2-3.6-0.1-5.3-0.1s-3.4,0-5,0c-1.7,0-3.4,0-5.2,0
			c0-3.9,0-7.6,0-11.5c5.1,0,10.2,0,15.4,0c0.1-1.8,0-3.5,0-5.1c0-1.7,0-3.5,0-5.2s0-3.3,0-5c1.1-0.3,8.8-0.4,11.2-0.2
			c0,0.5,0.1,1.1,0.1,1.6c0,4,0,8,0,11.9c0,0.5,0,1,0,1.7c1.4,0.3,2.6,0.1,3.9,0.2c1.2,0,2.5,0,3.7,0c1.3,0,2.6,0,3.9,0
			c1.2,0,2.5,0,3.7,0c0.4,1.1,0.4,9.9,0.1,11.5c-5,0-10.1,0-15.3,0C145.1,149.5,145.1,154.4,145.1,159.6z"/>
	</g>
</g>
</svg>
