<?xml version="1.0" encoding="utf-8"?>
<!-- Generator: Adobe Illustrator 24.0.1, SVG Export Plug-In . SVG Version: 6.00 Build 0)  -->
<svg version="1.1" id="Layer_2_1_" xmlns="http://www.w3.org/2000/svg" xmlns:xlink="http://www.w3.org/1999/xlink" x="0px" y="0px"
	 viewBox="0 0 243 148" style="enable-background:new 0 0 243 148;" xml:space="preserve">
<style type="text/css">
	.st0{fill-rule:evenodd;clip-rule:evenodd;fill:#FFFFFF;}
	.st1{fill-rule:evenodd;clip-rule:evenodd;fill:#EF4354;}
</style>
<g>
	<path class="st0" d="M74.3,52.2c1.5,0.4,2.8,0.8,4.2,1.2c6.2,2.2,11.8,5.4,16.2,10.3c4.3,4.8,6.9,10.4,7.8,16.8
		c1,7,0.4,13.7-2.3,20.3c-2.9,7.1-7.6,12.6-13.7,17c-6.3,4.5-13.5,7.2-21.1,8.7c-9.1,1.9-18.1,1.9-27.3,1.2c-7.5-0.5-15-1.9-22.2-4
		c-5-1.5-9.9-3.3-14.6-5.7c-0.3-0.2-0.7-0.4-1-0.6c-0.1-0.1-0.2-0.2-0.3-0.4c4.6-9.9,9.2-19.9,13.7-30c0.6,0.3,1,0.5,1.5,0.7
		c5.8,3.2,12,5.4,18.5,6.8c4.8,0.9,9.6,1.5,14.5,1.2c3.5-0.1,7-0.7,10-2.7c3.1-2,4.5-5.3,3.3-8.8c-0.8-2.6-2.8-3.8-5.2-4.7
		c-2.5-0.8-5.2-1-7.8-1c-5,0-9.9,0-14.9,0c-0.4,0-0.8,0-1.2,0c-0.5,0-0.8-0.3-0.8-0.8c0-0.3,0-0.6,0-0.9c0-7.4,0-14.7,0-22.1
		c0-0.9,0.2-1.7,0.9-2.4c6.5-6.6,12.9-13.1,19.4-19.7c3.8-4,7.8-7.9,11.7-11.9c5-5.1,10.1-10.3,15.1-15.4c0.7-0.7,1.5-1,2.5-1
		c32.2,0,64.3,0,96.5,0.1c5.7,0,11.3,0.7,17,2c6.9,1.5,13.3,3.7,19.5,7.2c12.6,7,21.4,17.3,26,31c2,5.8,2.9,11.9,3,18.1
		c0.1,4,0,8-0.5,12c-0.6,4.6-1.8,9.1-3.4,13.4c-5.2,13.3-14.5,23-27.3,29.3c-6.2,3.1-12.9,5.3-19.9,6.5c-2.6,0.4-5.2,0.8-8,1.2
		c-0.1-0.6-0.2-1-0.2-1.5c0-10.1,0-20.3,0-30.4c0-1.4,0-1.4,1.2-1.9c2.5-0.9,4.8-2.2,7-3.7c3.7-2.9,6.3-6.6,7.9-11
		c2.6-7.7,2.7-15.5,0-23.2c-2.8-8-8.5-13.1-16.5-15.5c-3.2-0.9-6.7-1.5-10-1.5c-27.2,0-54.3,0-81.5,0c-1.2,0-2.2,0.3-3,1.2
		c-4.4,4.6-8.8,9.1-13.3,13.6C74.9,51.5,74.6,51.8,74.3,52.2z"/>
	<path class="st1" d="M175.1,78.3c0.3,1.5,0.2,63.1-0.1,64.3c-21.2,0-42.5,0-63.7,0c-0.1-0.1-0.1-0.1-0.2-0.1l-0.1-0.1
		c0-0.1-0.1-0.3-0.1-0.4c0-20.9,0-41.8,0-62.7c0-0.2,0-0.5,0.1-0.6s0.1-0.1,0.1-0.2c0-0.1,0.1-0.1,0.1-0.1c20.8,0,41.6-0.1,62.4-0.1
		c0.3,0,0.7,0,1,0.1C175,78.1,175,78.2,175.1,78.3z M148.9,131.7c0-5.3,0-10.5,0-15.8c5.4,0,10.7,0,15.9,0c0.3-1.8,0.3-10.8-0.1-12
		c-1.2,0-2.5,0-3.8,0s-2.7,0-4.1,0c-1.2,0-2.6,0-3.8,0c-1.4,0-2.7,0.2-4.1-0.2c0-0.6,0-1.2,0-1.8c0-4.2,0-8.3,0-12.4
		c0-0.5-0.1-1.1-0.1-1.7c-2.4-0.3-10.4-0.2-11.7,0.2c0,1.7,0,3.4,0,5.2s0,3.6,0,5.4s0,3.4,0,5.3c-5.5,0-10.7,0-16,0
		c0,4.1,0,7.9,0,12c1.9,0,3.6,0,5.4,0s3.5,0,5.2,0c1.8,0,3.5-0.1,5.5,0.1c0,5.3,0,10.5,0,15.8C141.1,131.7,144.8,131.7,148.9,131.7z
		"/>
	<path class="st1" d="M68.8,4.8c-0.2,0.3-0.4,0.5-0.6,0.8c-4.4,4.5-8.7,8.8-13.1,13.3c-5.3,5.4-10.6,10.8-15.9,16.3
		c-0.8,0.8-1.7,1.2-2.9,1.2c-10.9,0-21.9,0-32.8,0c-0.5,0-1,0-1.8,0c0-0.6-0.1-1-0.1-1.6c0-9.6,0-19.1,0-28.7c0-1.7,0.1-1.7,1.7-1.7
		c12.3,0,24.6,0,36.8,0c8.9,0,18,0,26.9,0c0.5,0,1,0,1.6,0C68.7,4.5,68.7,4.7,68.8,4.8z"/>
	<path class="st0" d="M148.9,131.7c-4.1,0-7.8,0-11.8,0c0-5.3,0-10.4,0-15.8c-2-0.2-3.7-0.1-5.5-0.1c-1.8,0-3.5,0-5.2,0
		c-1.8,0-3.5,0-5.4,0c0-4.1,0-7.9,0-12c5.3,0,10.6,0,16,0c0.1-1.9,0-3.6,0-5.3c0-1.8,0-3.6,0-5.4c0-1.8,0-3.4,0-5.2
		c1.1-0.3,9.2-0.4,11.7-0.2c0,0.5,0.1,1.1,0.1,1.7c0,4.2,0,8.3,0,12.4c0,0.5,0,1,0,1.8c1.5,0.3,2.7,0.1,4.1,0.2c1.2,0,2.6,0,3.8,0
		c1.4,0,2.7,0,4.1,0c1.2,0,2.6,0,3.8,0c0.4,1.1,0.4,10.3,0.1,12c-5.2,0-10.5,0-15.9,0C148.9,121.2,148.9,126.3,148.9,131.7z"/>
</g>
</svg>
